<!DOCTYPE svg PUBLIC "-//W3C//DTD SVG 1.1//EN" "http://www.w3.org/Graphics/SVG/1.1/DTD/svg11.dtd">
<!-- Uploaded to: SVG Repo, www.svgrepo.com, Transformed by: SVG Repo Mixer Tools -->
<svg fill="#ffffff" width="800px" height="800px" viewBox="0 0 256 256" id="Flat" xmlns="http://www.w3.org/2000/svg" transform="rotate(270)">
<g id="SVGRepo_bgCarrier" stroke-width="0"/>
<g id="SVGRepo_tracerCarrier" stroke-linecap="round" stroke-linejoin="round"/>
<g id="SVGRepo_iconCarrier"> <g opacity="0.1"> <circle cx="128" cy="128" r="24"/> </g> <g opacity="0.1"> <circle cx="128" cy="48" r="24"/> </g> <g opacity="0.1"> <circle cx="128" cy="208" r="24"/> </g> <g> <path d="M128,96a32,32,0,1,0,32,32A32.03667,32.03667,0,0,0,128,96Zm0,48a16,16,0,1,1,16-16A16.01833,16.01833,0,0,1,128,144Z"/> <path d="M128,80A32,32,0,1,0,96,48,32.03667,32.03667,0,0,0,128,80Zm0-48a16,16,0,1,1-16,16A16.01833,16.01833,0,0,1,128,32Z"/> <path d="M128,176a32,32,0,1,0,32,32A32.03667,32.03667,0,0,0,128,176Zm0,48a16,16,0,1,1,16-16A16.01833,16.01833,0,0,1,128,224Z"/> </g> </g>
</svg>