<svg width="130" height="21" viewBox="0 0 130 21" fill="none" xmlns="http://www.w3.org/2000/svg">
<g id="Group 4">
<path id="Vector 1" d="M1.99323 12.2785V2.95319C1.99323 1.65563 3.41055 0.855744 4.52134 1.52641L16.3723 8.68169C17.4529 9.33414 17.4441 10.9044 16.3563 11.5447L4.12037 18.7478C3.1796 19.3016 1.99323 18.6233 1.99323 17.5316V17.5316" stroke="#FF2B58" stroke-width="2.5" stroke-linecap="round"/>
<g id="MOREDRAMA">
<path d="M21.8253 3.85281H24.9926L28.3378 12.0142H28.4802L31.8254 3.85281H34.9927V16H32.5016V8.09365H32.4007L29.2572 15.9407H27.5608L24.4173 8.06399H24.3164V16H21.8253V3.85281Z" fill="white"/>
<path d="M48.2713 9.92641C48.2713 11.251 48.0202 12.378 47.518 13.3072C47.0198 14.2364 46.3396 14.9462 45.4776 15.4365C44.6196 15.9229 43.6548 16.1661 42.5832 16.1661C41.5037 16.1661 40.5349 15.9209 39.6769 15.4306C38.8188 14.9403 38.1407 14.2305 37.6425 13.3013C37.1442 12.3721 36.8951 11.2471 36.8951 9.92641C36.8951 8.60176 37.1442 7.47483 37.6425 6.5456C38.1407 5.61637 38.8188 4.90857 39.6769 4.42221C40.5349 3.9319 41.5037 3.68674 42.5832 3.68674C43.6548 3.68674 44.6196 3.9319 45.4776 4.42221C46.3396 4.90857 47.0198 5.61637 47.518 6.5456C48.0202 7.47483 48.2713 8.60176 48.2713 9.92641ZM45.6674 9.92641C45.6674 9.06835 45.5389 8.34474 45.2819 7.75557C45.0288 7.1664 44.671 6.71958 44.2083 6.41511C43.7457 6.11064 43.204 5.9584 42.5832 5.9584C41.9624 5.9584 41.4207 6.11064 40.958 6.41511C40.4954 6.71958 40.1356 7.1664 39.8785 7.75557C39.6255 8.34474 39.4989 9.06835 39.4989 9.92641C39.4989 10.7845 39.6255 11.5081 39.8785 12.0972C40.1356 12.6864 40.4954 13.1332 40.958 13.4377C41.4207 13.7422 41.9624 13.8944 42.5832 13.8944C43.204 13.8944 43.7457 13.7422 44.2083 13.4377C44.671 13.1332 45.0288 12.6864 45.2819 12.0972C45.5389 11.5081 45.6674 10.7845 45.6674 9.92641Z" fill="white"/>
<path d="M50.1737 16V3.85281H54.9661C55.8835 3.85281 56.6664 4.01691 57.3149 4.34511C57.9674 4.66935 58.4636 5.13001 58.8037 5.72709C59.1477 6.32021 59.3197 7.01812 59.3197 7.82081C59.3197 8.62746 59.1457 9.32142 58.7977 9.90268C58.4498 10.48 57.9456 10.9229 57.2853 11.2313C56.6289 11.5397 55.8341 11.6939 54.9009 11.6939H51.6921V9.62984H54.4857C54.976 9.62984 55.3833 9.56262 55.7075 9.42818C56.0318 9.29374 56.273 9.09208 56.4312 8.82319C56.5933 8.55431 56.6743 8.22018 56.6743 7.82081C56.6743 7.41749 56.5933 7.07743 56.4312 6.80064C56.273 6.52385 56.0298 6.31428 55.7016 6.17193C55.3774 6.02562 54.9681 5.95247 54.4738 5.95247H52.7419V16H50.1737ZM56.7337 10.4721L59.7527 16H56.9175L53.9638 10.4721H56.7337Z" fill="white"/>
<path d="M61.1346 16V3.85281H69.3197V5.97027H63.7029V8.86471H68.8986V10.9822H63.7029V13.8825H69.3435V16H61.1346Z" fill="white"/>
<path d="M75.5253 16H71.7768V3.85281H75.6914C76.8697 3.85281 77.878 4.09599 78.7163 4.58236C79.5546 5.06476 80.1972 5.75872 80.644 6.66422C81.0908 7.56577 81.3142 8.64526 81.3142 9.90268C81.3142 11.168 81.0888 12.2574 80.638 13.1708C80.1873 14.0803 79.5309 14.7801 78.6689 15.2705C77.8069 15.7568 76.759 16 75.5253 16ZM73.2477 14.6951H75.4304C76.4348 14.6951 77.2671 14.5014 77.9275 14.1139C78.5878 13.7264 79.0801 13.1747 79.4043 12.459C79.7286 11.7433 79.8907 10.8912 79.8907 9.90268C79.8907 8.92205 79.7306 8.07783 79.4103 7.37004C79.09 6.65829 78.6115 6.11262 77.9749 5.73302C77.3383 5.34946 76.5455 5.15769 75.5965 5.15769H73.2477V14.6951Z" fill="white"/>
<path d="M83.7816 16V3.85281H87.886C88.835 3.85281 89.614 4.01493 90.2229 4.33917C90.8319 4.65946 91.2827 5.10035 91.5753 5.66184C91.8679 6.22333 92.0142 6.86193 92.0142 7.57763C92.0142 8.29334 91.8679 8.92798 91.5753 9.48156C91.2827 10.0351 90.8338 10.4701 90.2289 10.7864C89.6239 11.0988 88.8508 11.255 87.9098 11.255H84.5883V9.92641H87.8623C88.5108 9.92641 89.0327 9.83151 89.4281 9.64171C89.8275 9.45191 90.1162 9.18302 90.2941 8.83506C90.476 8.48314 90.5669 8.06399 90.5669 7.57763C90.5669 7.09127 90.476 6.6662 90.2941 6.30242C90.1122 5.93863 89.8216 5.65789 89.4222 5.46018C89.0229 5.25852 88.495 5.15769 87.8386 5.15769H85.2525V16H83.7816ZM89.4993 10.5433L92.4887 16H90.7805L87.8386 10.5433H89.4993Z" fill="white"/>
<path d="M94.9635 16H93.4214L97.8817 3.85281H99.4001L103.86 16H102.318L98.6883 5.77453H98.5934L94.9635 16ZM95.5329 11.255H101.749V12.5599H95.5329V11.255Z" fill="white"/>
<path d="M105.752 3.85281H107.508L111.636 13.9359H111.779L115.907 3.85281H117.662V16H116.286V6.77098H116.168L112.372 16H111.043L107.247 6.77098H107.128V16H105.752V3.85281Z" fill="white"/>
<path d="M121.11 16H119.568L124.028 3.85281H125.546L130.007 16H128.465L124.835 5.77453H124.74L121.11 16ZM121.679 11.255H127.895V12.5599H121.679V11.255Z" fill="white"/>
</g>
</g>
</svg>
